<?xml version="1.0" encoding="utf-8"?>
<!-- Generator: Adobe Illustrator 19.1.0, SVG Export Plug-In . SVG Version: 6.00 Build 0)  -->
<svg version="1.1" id="Logo" xmlns="http://www.w3.org/2000/svg" xmlns:xlink="http://www.w3.org/1999/xlink" x="0px" y="0px"
	 viewBox="-391 229 176 104" style="enable-background:new -391 229 176 104;" xml:space="preserve">
<style type="text/css">
	.st0{fill:#F1F2F2;}
	.st1{fill:#469FBD;}
</style>
<polygon id="M" class="st0" points="-277.8,273.1 -277.8,235.8 -258.5,288.5 -239.3,235.8 -220,235.8 -220,248.7 -226.4,248.7 
	-226.4,312.9 -220,312.9 -220,325.8 -245.7,325.8 -245.7,312.9 -239.3,312.9 -239.3,270.5 -258.5,325.8 "/>
<polygon id="L" class="st1" points="-284.1,273.2 -284.1,313.1 -277.7,313.1 -277.7,325.9 -329.1,325.9 -329.1,306.6 -316.3,306.6 
	-316.3,313.1 -297,313.1 -297,248.8 -303.4,248.8 -303.4,235.9 -284.1,235.9 "/>
<path id="T" class="st0" d="M-361.4,325.9v-12.8h6.4v-64.3h-19v6.4h-12.8v-19.3h77.5v19.3h-12.9v-6.4h-20v64.3h6.4V326h-25.6V325.9z
	"/>
</svg>
