<?xml version="1.0" encoding="utf-8"?>
<!-- Generator: Adobe Illustrator 19.1.0, SVG Export Plug-In . SVG Version: 6.00 Build 0)  -->
<svg version="1.1" id="Layer_1" xmlns="http://www.w3.org/2000/svg" xmlns:xlink="http://www.w3.org/1999/xlink" x="0px" y="0px"
	 viewBox="-443 245 72 72" style="enable-background:new -443 245 72 72;" xml:space="preserve">
<style type="text/css">
	.st0{fill:#46A0BE;}
</style>
<path class="st0" d="M-394.4,288.7c0.4-3.4,0.8-6.4,1.2-9.7c-3.2,0-6.2,0-9.4,0c0-2.7-0.1-5.2,0-7.7c0.1-1.8,1.3-2.9,3.2-3
	c2.1-0.1,4.1-0.2,6.5-0.3c0-2.6,0.1-5-0.1-7.5c0-0.4-0.9-1.1-1.4-1.2c-2.9-0.1-5.8-0.4-8.6,0c-5.8,0.8-9.3,5-9.7,11.2
	c-0.2,2.7,0,5.4,0,8.4c-2.8,0-5.4,0-8.2,0c0,3.3,0,6.3,0,9.6c2.6,0,5.2,0,8,0c0.1,0.8,0.1,1.3,0.1,1.7c0,8.3,0,16.7,0,25
	c-13-1.3-29.4-14.3-28.8-35c0.5-18.7,16.1-33.7,34.7-33.5c18.9,0.1,34.3,15.3,34.5,34.2c0.2,20.3-16.1,33.5-30.2,34.5
	c0-8.9,0-17.7,0-26.9C-399.9,288.7-397.3,288.7-394.4,288.7z"/>
</svg>
