<?xml version="1.0" encoding="utf-8"?>
<!-- Generator: Adobe Illustrator 19.1.0, SVG Export Plug-In . SVG Version: 6.00 Build 0)  -->
<svg version="1.1" id="Layer_1" xmlns="http://www.w3.org/2000/svg" xmlns:xlink="http://www.w3.org/1999/xlink" x="0px" y="0px"
	 viewBox="-443 245 72 72" style="enable-background:new -443 245 72 72;" xml:space="preserve">
<style type="text/css">
	.st0{fill:#F1F2F2;}
</style>
<path class="st0" d="M-405.7,246.8c0.3,0,0.6,0,0.9,0.1c3.2,0.2,6.4,0.8,9.5,1.9c4.1,1.4,7.9,3.6,11.2,6.4
	c5.2,4.4,8.8,9.9,10.8,16.3c0.7,2.2,1.1,4.4,1.4,6.6c0.2,2.1,0.3,4.2,0.1,6.3c-0.4,5-1.7,9.7-4.1,14.1c-1.3,2.5-3,4.8-4.9,6.9
	c-2.2,2.4-4.7,4.5-7.5,6.3c-2.3,1.4-4.7,2.6-7.3,3.4c-0.5,0.2-1,0.2-1.5,0c-0.7-0.3-1-0.8-1-1.5c0-1.1,0-2.3,0-3.4
	c0-2.1,0-4.2,0-6.3c0-1.5-0.2-2.9-0.8-4.3c-0.3-0.8-0.6-1.1-1.5-2.1c0.2,0,0.4-0.1,0.6-0.1c1.9-0.2,3.7-0.6,5.4-1.2
	c1.8-0.6,3.5-1.5,5-2.8c1.6-1.4,2.8-3.2,3.6-5.2c0.6-1.6,1-3.2,1.2-4.9c0.1-1.1,0.2-2.3,0.2-3.4c-0.1-3.4-1.2-6.4-3.5-9
	c-0.1-0.1-0.1-0.1-0.1-0.3c0.6-1.5,0.7-3.1,0.6-4.6s-0.4-2.9-1-4.3c0-0.1-0.1-0.2-0.2-0.2c-0.8-0.1-1.6,0-2.4,0.2
	c-1.6,0.4-3.2,1.1-4.6,1.9c-0.8,0.4-1.5,0.9-2.3,1.4c-0.1,0.1-0.2,0.1-0.3,0c-1.3-0.3-2.6-0.6-3.9-0.8c-2.3-0.3-4.5-0.4-6.8-0.3
	c-2.2,0.1-4.4,0.5-6.6,1.1c-0.1,0-0.2,0-0.3,0c-1.4-0.9-2.8-1.8-4.4-2.5c-1.1-0.5-2.2-0.9-3.4-1.1c-0.5-0.1-1.1-0.1-1.6,0
	c-0.1,0-0.2,0.1-0.2,0.1c-0.7,1.9-1.1,3.8-1,5.8c0.1,1.1,0.2,2.2,0.6,3.3c0,0.1,0,0.2-0.1,0.2c-1.6,1.8-2.7,3.8-3.2,6.1
	c-0.3,1.4-0.4,2.7-0.3,4.1c0.1,1.7,0.2,3.4,0.7,5.1c0.5,2.1,1.4,4,2.8,5.7c1.1,1.4,2.5,2.5,4.1,3.3c1.7,0.9,3.4,1.4,5.3,1.8
	c1,0.2,2,0.3,3,0.5c0,0,0,0,0.1,0l0,0c-1,0.9-1.5,2-1.9,3.3c-0.1,0.4-0.2,0.8-0.3,1.2c0,0.1-0.1,0.2-0.2,0.2
	c-1.3,0.5-2.5,0.9-3.9,0.9c-2,0-3.7-0.8-5.1-2.3c-0.4-0.5-0.8-1-1.1-1.6c-0.8-1.3-1.8-2.3-3.2-3c-0.8-0.4-1.6-0.6-2.5-0.6
	c-0.3,0-0.6,0.1-0.9,0.2c-0.4,0.1-0.5,0.5-0.3,0.8c0.3,0.4,0.6,0.7,1,0.9c0.5,0.3,1,0.7,1.4,1c1,0.9,1.7,2.1,2.3,3.3
	c0.2,0.3,0.3,0.7,0.4,1c0.6,1.4,1.5,2.4,2.8,3.2c1.2,0.7,2.5,1.1,3.9,1.3c1.7,0.2,3.3,0,4.9-0.3h0.1c0,0,0,0,0.1,0c0,0,0,0.1,0,0.2
	c0,2.1,0,4.2,0,6.3c0,0.5-0.1,1-0.5,1.4s-0.8,0.4-1.3,0.4c-0.4,0-0.8-0.1-1.2-0.3c-4.5-1.6-8.5-4-12-7.2c-4.1-3.8-7.2-8.3-9.1-13.5
	c-0.8-2.2-1.4-4.5-1.8-6.8c-0.2-1.4-0.4-2.8-0.4-4.2c0-0.1,0-0.1,0-0.2c0-0.7,0-1.5,0-2.2c0-0.3,0-0.6,0.1-1
	c0.1-2.1,0.4-4.2,0.9-6.2c1.9-7.6,5.9-14,12-18.9c3.5-2.9,7.5-5,11.8-6.3c2.7-0.8,5.4-1.3,8.2-1.5c0.3,0,0.6,0,1-0.1
	C-407.2,246.8-406.5,246.8-405.7,246.8z"/>
</svg>
