<?xml version="1.0" encoding="utf-8"?>
<!-- Generator: Adobe Illustrator 19.1.0, SVG Export Plug-In . SVG Version: 6.00 Build 0)  -->
<svg version="1.1" id="Layer_1" xmlns="http://www.w3.org/2000/svg" xmlns:xlink="http://www.w3.org/1999/xlink" x="0px" y="0px"
	 viewBox="-443 245 72 72" style="enable-background:new -443 245 72 72;" xml:space="preserve">
<style type="text/css">
	.st0{fill:#46A0BE;}
</style>
<g>
	<path class="st0" d="M-415.1,286.6c-1.5,3.1-0.5,5.8,1.6,8.3c-1.2,0.1-2.1,0.2-3.1,0.3c-3.2,0.3-6.4,0.9-9.4,2.1
		c-2.9,1.2-5.4,2.9-7.2,5.7c-2.6-3.1-4.6-6.4-5.9-10.1c-2.5-6.9-2.9-14-0.9-21.1c4-14.5,16.8-24.3,31.2-25
		c16.8-0.8,28.9,9.9,33.3,20.9c-2.2,0-4.3,0-6.6,0c0-0.2,0-0.5,0-0.8c0-2.5,0-4.9,0-7.4c0-0.5-0.1-0.8-0.7-0.7c-0.8,0-1.7,0-2.5,0
		c-0.6,0-0.7,0.2-0.7,0.7c0,2.4,0,4.8,0,7.3c0,0.3,0,0.6,0,0.9c-3,0-5.9,0-8.9,0c0,1.2,0,2.4,0,3.6c0,0.1,0.5,0.3,0.7,0.3
		c2.2,0,4.4,0,6.7,0c1.7,0,1.4-0.2,1.5,1.5c0,2.2,0,4.5,0,6.7c0,0.6,0.2,0.9,0.8,0.8c0.8,0,1.5,0,2.3,0c0.6,0,0.9-0.1,0.9-0.8
		c0-2.5,0-4.9,0-7.4c0-0.6,0.2-0.8,0.8-0.8c2.2,0,4.3,0,6.5,0c0.6,0,0.8,0.2,1,0.8c2.6,11.3,0.4,21.6-7,30.6
		c-5.1,6.2-11.7,10-19.5,11.6c-0.2,0-0.4,0.1-0.6,0.1c-0.1-0.1-0.1-0.2-0.2-0.2c0.3-0.2,0.6-0.3,0.8-0.5c2.4-2.4,3.8-5.3,4-8.7
		c0.1-3-0.7-5.8-2.8-8c-1.8-1.8-3.8-3.5-5.8-5.2c-0.6-0.5-1.3-1-1.8-1.5c-1.5-1.4-1.6-3.3-0.4-4.9c0.5-0.7,1.2-1.3,1.8-1.9
		c0.8-0.8,1.7-1.5,2.6-2.3c5-4.7,4.8-12.5,0.8-17.1c-0.7-0.8-1.5-1.6-2.4-2.5c1.1,0,2.2,0,3.3,0c0.9,0,1.6-0.2,2.4-0.6
		c1.1-0.7,2.2-1.2,3.2-1.8c0.2-0.1,0.4-0.2,0.5-0.5c-0.2,0-0.4-0.1-0.6-0.1c-5.4,0-10.8,0-16.2,0c-3.8,0-7.5,0.6-11,2.5
		c-4.4,2.4-7.2,6.1-7.9,11.1c-0.9,6.4,3.4,12.5,9.7,13.8c1.5,0.3,3.1,0.2,4.7,0.3C-416,286.6-415.6,286.6-415.1,286.6z"/>
	<path class="st0" d="M-402.1,307.7c0,3.4-1.8,6.1-4.8,7.4c-0.2,0.1-0.5,0.1-0.8,0.1c-7.1-0.2-13.6-2.2-19.4-6.3
		c-0.4-0.3-0.6-0.6-0.7-1.1c-0.4-3.3,0.9-5.9,3.6-7.7c2.2-1.5,4.6-2.1,7.2-2.4c1.8-0.2,3.7-0.3,5.5-0.3c0.4,0,0.9,0.1,1.2,0.4
		c2,1.6,4.1,3.2,6.1,5C-402.7,304-402,305.8-402.1,307.7z"/>
	<path class="st0" d="M-406.3,276.2c-0.2,1.1-0.2,2.1-0.5,3.1c-1.4,4.7-7.3,6.5-11.4,3.5c-1.8-1.3-3-3.1-3.8-5.2
		c-1.4-3.3-2.1-6.7-1.3-10.3c1.2-5.6,7.6-7.6,11.9-3.8c2.4,2.2,3.7,5,4.5,8.1C-406.7,273.2-406.5,274.7-406.3,276.2z"/>
</g>
</svg>
